<svg width="100" height="100" viewBox="0 0 100 100" fill="none" xmlns="http://www.w3.org/2000/svg">
<g clip-path="url(#clip0_4_13)">
<rect width="100" height="100" fill="white"/>
<path fill-rule="evenodd" clip-rule="evenodd" d="M98.9498 19.174C97.8915 18.6573 97.4331 19.6448 96.8165 20.149C96.604 20.3115 96.4248 20.524 96.2456 20.7157C94.6956 22.3698 92.8873 23.4532 90.5248 23.324C87.0706 23.1323 84.1206 24.2157 81.5123 26.8573C80.9581 23.599 79.1165 21.6573 76.3165 20.4073C74.8498 19.7573 73.3665 19.1115 72.3373 17.699C71.6206 16.6948 71.4248 15.574 71.0665 14.474C70.8373 13.8073 70.6081 13.1282 69.8456 13.0157C69.0123 12.8865 68.6873 13.5823 68.3623 14.1657C67.0581 16.549 66.554 19.174 66.604 21.8323C66.7165 27.8157 69.2415 32.5823 74.2623 35.9698C74.8331 36.3573 74.979 36.749 74.7998 37.3157C74.4581 38.4823 74.0498 39.6157 73.6915 40.7865C73.4623 41.5323 73.1206 41.6907 72.3206 41.3698C69.6175 40.2081 67.1621 38.5391 65.0873 36.4531C61.5165 33.0031 58.2915 29.1948 54.2665 26.2115C53.3339 25.5224 52.3763 24.8678 51.3956 24.249C47.2915 20.2615 51.9373 16.9865 53.0123 16.599C54.1373 16.1907 53.3998 14.799 49.7665 14.8157C46.1331 14.8323 42.8081 16.0448 38.5706 17.6657C37.9409 17.9069 37.2931 18.0978 36.6331 18.2365C32.6732 17.4904 28.6233 17.3471 24.6206 17.8115C16.7665 18.6865 10.4956 22.4032 5.88312 28.7407C0.341457 36.3573 -0.96271 45.0157 0.633124 54.0407C2.31229 63.5573 7.17062 71.4365 14.6331 77.5948C22.3748 83.9823 31.2873 87.1115 41.4581 86.5115C47.6331 86.1573 54.5123 85.3282 62.2665 78.7615C64.2248 79.7365 66.2748 80.124 69.6831 80.4157C72.3081 80.6615 74.8331 80.2907 76.7873 79.8823C79.8498 79.2323 79.6373 76.3948 78.5331 75.8782C69.554 71.6948 71.5248 73.399 69.729 72.0198C74.2956 66.6198 81.1706 61.0115 83.8623 42.8407C84.0706 41.3948 83.8915 40.4865 83.8623 39.3198C83.8456 38.6115 84.0081 38.3323 84.8206 38.2532C87.0749 38.0193 89.2618 37.347 91.2581 36.274C97.0748 33.0948 99.4248 27.8782 99.979 21.6198C100.062 20.6615 99.9623 19.6782 98.9498 19.174ZM48.254 75.499C39.5498 68.6573 35.329 66.4032 33.5873 66.499C31.954 66.599 32.2498 68.4615 32.6081 69.6782C32.9831 70.8782 33.4706 71.7031 34.154 72.7573C34.629 73.4532 34.954 74.4907 33.6831 75.2698C30.879 77.0032 26.0081 74.6865 25.779 74.574C20.1081 71.2323 15.3623 66.824 12.0248 60.7948C8.79979 54.9907 6.92479 48.7657 6.61646 42.1198C6.53312 40.5115 7.00396 39.9448 8.60396 39.6532C10.7044 39.2512 12.8566 39.1963 14.9748 39.4907C23.8581 40.7907 31.4165 44.7615 37.7581 51.049C41.3748 54.6323 44.1123 58.9115 46.9331 63.0948C49.9331 67.5365 53.1581 71.7698 57.2665 75.2365C58.7165 76.4532 59.8706 77.3782 60.979 78.0573C57.6373 78.4323 52.0623 78.5157 48.254 75.499ZM52.4206 48.6657C52.4199 48.4587 52.4696 48.2546 52.5654 48.0711C52.6611 47.8877 52.8002 47.7303 52.9704 47.6125C53.1406 47.4948 53.337 47.4203 53.5425 47.3954C53.7479 47.3706 53.9564 47.3961 54.1498 47.4698C54.3963 47.5582 54.6091 47.7214 54.7584 47.9365C54.9078 48.1516 54.9864 48.408 54.9831 48.6698C54.9837 48.839 54.9506 49.0066 54.8857 49.1629C54.8208 49.3192 54.7255 49.461 54.6053 49.58C54.4851 49.6991 54.3424 49.793 54.1855 49.8564C54.0286 49.9197 53.8606 49.9512 53.6915 49.949C53.5235 49.9496 53.3572 49.9166 53.2022 49.8521C53.0471 49.7876 52.9065 49.6929 52.7886 49.5734C52.6706 49.4539 52.5777 49.312 52.5152 49.1562C52.4528 49.0003 52.4179 48.8335 52.4206 48.6657ZM65.379 55.3157C64.5456 55.6532 63.7165 55.9448 62.9206 55.9823C61.7233 56.0241 60.5485 55.6501 59.5956 54.924C58.454 53.9657 57.6373 53.4323 57.2956 51.7657C57.1778 50.9512 57.2004 50.1225 57.3623 49.3157C57.654 47.9532 57.329 47.0782 56.3665 46.2865C55.5873 45.6365 54.5915 45.4573 53.4998 45.4573C53.126 45.4356 52.763 45.3241 52.4415 45.1323C51.9831 44.9073 51.6081 44.3407 51.9665 43.6407C52.0831 43.4157 52.6331 42.8657 52.7665 42.7657C54.2498 41.924 55.9623 42.199 57.5415 42.8323C59.0081 43.4323 60.1165 44.5323 61.7123 46.0907C63.3415 47.9698 63.6373 48.4907 64.5665 49.899C65.2998 51.0032 65.9665 52.1365 66.4206 53.4323C66.6998 54.2448 66.3415 54.9073 65.379 55.3157Z" fill="#4F6BFE"/>
</g>
<defs>
<clipPath id="clip0_4_13">
<rect width="100" height="100" fill="white"/>
</clipPath>
</defs>
</svg>
