<svg width="162" height="162" viewBox="0 0 162 162" fill="none" xmlns="http://www.w3.org/2000/svg">
<path fill-rule="evenodd" clip-rule="evenodd" d="M97.9839 46L81.3322 85.9032L64.6648 46H53.9724L72.2409 89.621C73.7561 93.2606 77.3098 95.6115 81.2697 95.6115C85.2296 95.6115 88.7755 93.2606 90.2985 89.6366L108.676 46H97.9839ZM105.099 106.796L135.56 75.9997L131.405 66.1976L98.1323 99.8994C95.3518 102.719 94.5552 106.874 96.0938 110.514C97.6246 114.122 101.163 116.457 105.107 116.457L105.123 116.473L152.68 116.356L148.525 106.554L105.107 106.796H105.099ZM27.1204 75.9762L31.2755 66.1742L64.5477 99.876C67.3282 102.688 68.1326 106.858 66.5862 110.49C65.0554 114.107 61.5016 116.434 57.573 116.434L10.0156 116.325L10 116.34L14.1551 106.538L57.573 106.78L27.1204 75.9762Z" fill="black"/>
</svg>
