<svg width="400" height="400" viewBox="0 0 400 400" fill="none" xmlns="http://www.w3.org/2000/svg">
<path d="M200.401 65.0031C149.3 64.5916 107.498 105.571 107.004 156.672C106.511 207.772 147.572 249.574 198.673 250.068C199.249 250.068 199.825 250.068 200.401 250.068H230.847V215.425H200.401C168.473 215.836 142.306 190.245 141.894 158.317C141.483 126.39 167.074 100.222 199.002 99.8108C199.413 99.8108 199.907 99.8108 200.319 99.8108C232.164 99.8108 258.249 125.731 258.249 157.659V242.827C258.249 274.508 232.493 300.264 200.895 300.675C185.754 300.51 171.353 294.503 160.656 283.724L136.134 308.163C153.168 325.279 176.208 334.989 200.319 335.236H201.553C251.995 334.495 292.563 293.598 292.81 243.156V155.273C291.576 105.077 250.514 65.0854 200.401 65.0031Z" fill="black"/>
</svg>
