<svg width="100" height="100" viewBox="0 0 100 100" fill="none" xmlns="http://www.w3.org/2000/svg">
<path d="M50.1202 18.0007C38.018 17.9033 28.118 27.6084 28.001 39.7106C27.8841 51.8128 37.6087 61.7128 49.7109 61.8297C49.8473 61.8297 49.9837 61.8297 50.1202 61.8297H57.3308V53.6252H50.1202C42.5587 53.7226 36.3615 47.6618 36.264 40.1004C36.1666 32.5389 42.2274 26.3417 49.7889 26.2442C49.8863 26.2442 50.0032 26.2442 50.1007 26.2442C57.6426 26.2442 63.8204 32.383 63.8204 39.9444V60.1147C63.8204 67.6177 57.7206 73.7175 50.2371 73.815C46.6513 73.776 43.2408 72.3533 40.7074 69.8004L34.8999 75.5884C38.9339 79.6419 44.3906 81.9415 50.1007 82H50.393C62.3393 81.8246 71.947 72.139 72.0054 60.1927V39.3793C71.7131 27.4915 61.9885 18.0202 50.1202 18.0007Z" fill="black"/>
</svg>
