<svg width="400" height="400" viewBox="0 0 400 400" fill="none" xmlns="http://www.w3.org/2000/svg">
<path d="M200.251 0.00454601C124.612 -0.604461 62.7373 60.0526 62.0065 135.691C61.2757 211.33 122.055 273.205 197.693 273.936C198.546 273.936 199.398 273.936 200.251 273.936H245.318V222.657H200.251C152.992 223.266 114.259 185.386 113.65 138.127C113.041 90.8683 150.921 52.1355 198.18 51.5265C198.789 51.5265 199.52 51.5265 200.129 51.5265C247.266 51.5265 285.877 89.8939 285.877 137.153V263.217C285.877 310.111 247.754 348.234 200.982 348.843C178.57 348.6 157.255 339.708 141.421 323.752L105.124 359.927C130.337 385.262 164.441 399.635 200.129 400H201.956C276.62 398.904 336.668 338.369 337.034 263.704V133.621C335.207 59.3218 274.428 0.126347 200.251 0.00454601Z" fill="black"/>
</svg>
