<svg width="100" height="100" viewBox="0 0 100 100" fill="none" xmlns="http://www.w3.org/2000/svg">
<rect width="100" height="100" fill="#F55036"/>
<g clip-path="url(#clip0_4_12)">
<path d="M50.0502 10.0009C34.9224 9.87911 22.5475 22.0105 22.4013 37.1382C22.2551 52.266 34.411 64.641 49.5386 64.7872C49.7092 64.7872 49.8796 64.7872 50.0502 64.7872H59.0636V54.5314H50.0502C40.5984 54.6532 32.8518 47.0772 32.73 37.6254C32.6082 28.1737 40.1842 20.4271 49.636 20.3053C49.7578 20.3053 49.904 20.3053 50.0258 20.3053C59.4532 20.3053 67.1754 27.9788 67.1754 37.4306V62.6434C67.1754 72.0222 59.5508 79.6468 50.1964 79.7686C45.714 79.72 41.451 77.9416 38.2842 74.7504L31.0248 81.9854C36.0674 87.0524 42.8882 89.927 50.0258 90H50.3912C65.324 89.7808 77.3336 77.6738 77.4068 62.7408V36.7242C77.0414 21.8644 64.8856 10.0253 50.0502 10.0009Z" fill="white"/>
</g>
<defs>
<clipPath id="clip0_4_12">
<rect width="80" height="80" fill="white" transform="translate(10 10)"/>
</clipPath>
</defs>
</svg>
