<svg width="100" height="100" viewBox="0 0 100 100" fill="none" xmlns="http://www.w3.org/2000/svg">
<g clip-path="url(#clip0_278_45)">
<path d="M36.5389 18.018C35.9417 18.1145 35.2251 18.4268 34.7197 18.8127C33.19 19.975 32.0047 22.442 31.504 25.5154C31.3156 26.6776 31.187 28.2901 31.187 29.5214C31.187 30.973 31.357 32.829 31.6004 34.1107C31.6556 34.3955 31.6831 34.6482 31.6602 34.6666C31.6418 34.685 31.4167 34.8687 31.164 35.0708C30.3003 35.7599 29.3126 36.8212 28.6327 37.7905C27.328 39.6419 26.4827 41.746 26.129 44.0245C25.9912 44.925 25.9544 46.7442 26.0647 47.6446C26.3082 49.7211 26.9329 51.476 28.0033 53.0839L28.3525 53.603L28.2514 53.773C27.5348 54.9766 26.9238 56.7178 26.6389 58.3899C26.4138 59.713 26.3863 60.0667 26.3863 61.84C26.3863 63.6271 26.4092 63.9809 26.6206 65.2166C26.8732 66.6959 27.3878 68.2624 27.962 69.3053C28.1504 69.6452 28.6098 70.3527 28.6649 70.3895C28.6833 70.3986 28.6281 70.5686 28.5408 70.7661C27.8793 72.2133 27.3142 74.1381 27.08 75.7599C26.9146 76.8715 26.8916 77.2299 26.8916 78.4014C26.8916 79.8944 26.9743 80.6203 27.2867 81.8101L27.3326 81.9846H29.2988H31.2697L31.141 81.7412C30.3463 80.2711 30.2728 77.5423 30.9573 74.8181C31.2697 73.5593 31.6234 72.6359 32.2849 71.3633L32.68 70.5916V70.1184C32.68 69.6774 32.6708 69.6269 32.5284 69.3374C32.4182 69.1169 32.2712 68.9286 32.0093 68.6713C31.5637 68.2395 31.2421 67.7847 30.9848 67.2242C29.8547 64.771 29.6342 61.128 30.429 58.0224C30.7597 56.7269 31.3064 55.5738 31.8807 54.9445C32.2712 54.5126 32.4733 54.0303 32.4733 53.5295C32.4733 53.0104 32.2895 52.5832 31.8761 52.1376C30.6908 50.8696 29.9604 49.326 29.6985 47.5298C29.3264 44.9709 30.0017 42.1823 31.5361 39.9727C33.0384 37.8043 35.147 36.4123 37.5037 36.0402C38.032 35.9529 39.0197 35.9667 39.571 36.0678C40.1729 36.1735 40.5495 36.1412 40.9355 35.9575C41.4132 35.7324 41.6521 35.4521 41.9323 34.809C42.1804 34.2348 42.3734 33.9224 42.8925 33.2746C43.5173 32.4983 44.119 31.9699 45.0838 31.3313C46.1864 30.6101 47.4405 30.0864 48.6901 29.8337C49.1448 29.7418 49.3562 29.728 50.2061 29.728C51.056 29.728 51.2673 29.7418 51.7221 29.8337C53.5551 30.2059 55.3743 31.1522 56.826 32.4936C57.1384 32.783 57.8872 33.711 58.1261 34.097C58.218 34.2485 58.3788 34.5702 58.4798 34.809C58.7601 35.4521 58.999 35.7324 59.4767 35.9575C59.8489 36.1367 60.2393 36.1735 60.8182 36.0769C61.7324 35.9208 62.4353 35.9345 63.3311 36.1183C66.3815 36.7339 69.0369 39.2468 70.2129 42.6142C71.2374 45.5681 70.9479 48.6599 69.4227 51.0212C69.1654 51.4209 68.9082 51.7425 68.5361 52.1376C67.7321 52.9966 67.7321 54.0624 68.5315 54.9445C69.8454 56.3824 70.6677 59.9198 70.4196 63.0391C70.2543 65.0972 69.7259 66.9394 69.0001 67.9822C68.8715 68.166 68.605 68.4783 68.4028 68.6713C68.141 68.9286 67.994 69.1169 67.8837 69.3374C67.7413 69.6269 67.7321 69.6774 67.7321 70.1184V70.5916L68.1272 71.3633C68.7888 72.6359 69.1425 73.5593 69.4549 74.8181C70.1302 77.5055 70.0705 80.1792 69.2987 81.6999C69.2344 81.8285 69.1792 81.9479 69.1792 81.9617C69.1792 81.9755 70.0567 81.9846 71.1317 81.9846H73.0796L73.1301 81.7871C73.1577 81.6815 73.2036 81.5207 73.2265 81.4288C73.2771 81.2267 73.3781 80.6295 73.4609 80.0552C73.539 79.4764 73.539 77.3447 73.4609 76.7016C73.1669 74.3678 72.6753 72.5165 71.8714 70.7661C71.7841 70.5686 71.7289 70.3986 71.7473 70.3895C71.7703 70.3757 71.8989 70.1919 72.0367 69.9852C73.0382 68.4692 73.6538 66.5627 73.9662 64.0452C74.0489 63.3514 74.0489 60.3699 73.9662 59.7038C73.7456 57.9857 73.4792 56.8188 73.0382 55.6381C72.8544 55.1466 72.3675 54.1084 72.1608 53.773L72.0597 53.603L72.4088 53.0839C73.4792 51.476 74.104 49.7211 74.3475 47.6446C74.4577 46.7442 74.421 44.925 74.2832 44.0245C73.9248 41.7413 73.0841 39.6465 71.7795 37.7905C71.0995 36.8212 70.1118 35.7599 69.2482 35.0708C68.9955 34.8687 68.7704 34.685 68.752 34.6666C68.7291 34.6482 68.7566 34.3955 68.8117 34.1107C69.3676 31.2119 69.3492 27.5965 68.7658 24.7711C68.2605 22.3088 67.3417 20.3517 66.1564 19.2216C65.21 18.3212 64.2453 17.9353 63.0876 18.0088C60.4323 18.165 58.2915 21.22 57.4462 26.0345C57.3084 26.8109 57.189 27.7205 57.189 27.9686C57.189 28.065 57.1705 28.1431 57.1476 28.1431C57.1246 28.1431 56.9455 28.0512 56.7525 27.9364C54.7036 26.7236 52.425 26.0758 50.2061 26.0758C47.9872 26.0758 45.7086 26.7236 43.6597 27.9364C43.4667 28.0512 43.2876 28.1431 43.2646 28.1431C43.2416 28.1431 43.2232 28.065 43.2232 27.9686C43.2232 27.7113 43.0992 26.7741 42.966 26.0345C42.1987 21.7115 40.4393 18.8495 38.1009 18.1282C37.7794 18.0318 36.8652 17.9674 36.5389 18.018ZM37.32 21.7575C37.9815 22.2812 38.7165 23.7788 39.1392 25.4556C39.2173 25.7588 39.2999 26.108 39.3229 26.2366C39.3413 26.3607 39.3918 26.6409 39.4332 26.8568C39.6124 27.8307 39.695 28.8828 39.7042 30.1645L39.7088 31.4279L39.3918 31.8964L39.0749 32.3696H38.3352C37.4716 32.3696 36.6125 32.4799 35.7901 32.7004C35.4961 32.7739 35.2113 32.8474 35.1562 32.8612C35.0689 32.8796 35.0551 32.852 35.0046 32.4752C34.7335 30.4309 34.7473 28.1661 35.046 26.2825C35.3767 24.1831 36.1485 22.2812 36.9019 21.7207C37.0811 21.5875 37.1132 21.5921 37.32 21.7575ZM63.5149 21.7253C63.9697 22.0607 64.4704 22.9519 64.8425 24.0912C65.5913 26.3698 65.8027 29.4983 65.4076 32.4752C65.3571 32.852 65.3433 32.8796 65.256 32.8612C65.2009 32.8474 64.916 32.7739 64.622 32.7004C63.7997 32.4799 62.9406 32.3696 62.077 32.3696H61.3373L61.0204 31.8964L60.7034 31.4279L60.7079 30.1645C60.7172 28.382 60.8825 26.9901 61.2776 25.4419C61.6957 23.7788 62.4353 22.2812 63.0922 21.7575C63.299 21.5921 63.3311 21.5875 63.5149 21.7253Z" fill="black"/>
<path d="M49.494 44.8467C48.4971 44.9433 48.2261 44.98 47.7483 45.0765C46.9719 45.2373 45.9336 45.5956 45.2124 45.9494C42.7041 47.1759 40.9768 49.2202 40.4484 51.5861C40.3428 52.0548 40.329 52.2109 40.329 53.0011C40.329 53.7821 40.3428 53.952 40.4439 54.3977C41.1467 57.4894 43.995 59.7727 47.6794 60.1907C48.4787 60.278 51.9334 60.278 52.7328 60.1907C55.6913 59.8553 58.2364 58.252 59.3803 56.0009C59.6834 55.3992 59.8305 55.0086 59.9683 54.3977C60.0694 53.952 60.0832 53.7821 60.0832 53.0011C60.0832 52.2109 60.0694 52.0548 59.9637 51.5861C59.1965 48.1499 55.8613 45.444 51.7726 44.9295C51.2397 44.8652 49.8432 44.81 49.494 44.8467ZM51.2121 47.3459C52.5766 47.4929 53.9502 47.9799 55.0527 48.7149C55.6454 49.11 56.4815 49.9369 56.8398 50.479C57.2808 51.1497 57.5334 51.8342 57.6483 52.6658C57.6988 53.0471 57.6713 53.3365 57.5334 53.952C57.3175 54.8708 56.6468 55.831 55.7418 56.5017C55.3191 56.8095 54.4417 57.2552 53.9042 57.4297C52.8844 57.7559 52.2182 57.8156 49.8385 57.7972C48.2858 57.7834 48.0101 57.7696 47.5645 57.687C46.0439 57.4021 44.8403 56.7957 43.9675 55.8723C43.2599 55.1281 42.9384 54.4482 42.7638 53.3503C42.6857 52.8403 42.8327 51.995 43.1313 51.2829C43.4943 50.4147 44.4314 49.3351 45.3594 48.7149C46.4344 47.9983 47.8494 47.4883 49.1494 47.3505C49.6502 47.2954 50.7114 47.2954 51.2121 47.3459Z" fill="black"/>
<path d="M48.4512 50.6995C48.1021 50.8879 47.8586 51.3656 47.9321 51.7193C48.0147 52.1007 48.3501 52.4866 48.8738 52.8036C49.1541 52.9736 49.1724 52.9965 49.1862 53.1665C49.1954 53.2676 49.1586 53.557 49.1081 53.8143C49.053 54.0669 49.0116 54.3334 49.0116 54.4069C49.0163 54.6044 49.2 54.926 49.3929 55.0822C49.563 55.22 49.5951 55.2246 50.0729 55.2384C50.5093 55.2522 50.6012 55.2429 50.7757 55.1603C51.226 54.9397 51.3408 54.5355 51.1754 53.7591C51.0376 53.1114 51.0652 53.0103 51.4097 52.8127C51.7726 52.6014 52.1586 52.2293 52.2734 51.9766C52.4939 51.4943 52.2917 50.9476 51.8048 50.6949C51.6854 50.6352 51.5383 50.6077 51.3224 50.6077C50.9871 50.6077 50.7712 50.6858 50.3761 50.9384L50.1509 51.0808L50.0086 50.9935C49.4251 50.649 49.3195 50.6077 48.9657 50.6122C48.713 50.6122 48.5752 50.6352 48.4512 50.6995Z" fill="black"/>
<path d="M37.297 45.366C36.4839 45.6232 35.8775 46.2204 35.5651 47.0703C35.4135 47.4747 35.34 48.1132 35.4043 48.4577C35.5559 49.2801 36.2312 50.0289 36.9985 50.2356C37.9632 50.4883 38.6844 50.3229 39.323 49.689C39.6951 49.326 39.8973 49.009 40.0994 48.4945C40.2463 48.1316 40.2556 48.0673 40.2556 47.5527L40.2601 47.0015L40.0672 46.6064C39.7594 45.9816 39.2035 45.5176 38.5604 45.3476C38.1974 45.2557 37.614 45.2604 37.297 45.366Z" fill="black"/>
<path d="M61.8335 45.3524C61.2041 45.5223 60.6436 45.9909 60.345 46.6065L60.1521 47.0016L60.1567 47.5529C60.1567 48.0674 60.1659 48.1317 60.3128 48.4946C60.515 49.0091 60.7172 49.3261 61.0892 49.6891C61.7278 50.323 62.4491 50.4884 63.4139 50.2358C63.9697 50.0887 64.5255 49.6201 64.792 49.0734C65.0217 48.6095 65.0768 48.2741 65.0034 47.7458C64.8334 46.5376 64.1259 45.6601 63.0738 45.3524C62.7661 45.2605 62.1688 45.2605 61.8335 45.3524Z" fill="black"/>
</g>
<defs>
<clipPath id="clip0_278_45">
<rect width="48.4122" height="64" fill="white" transform="translate(26 18)"/>
</clipPath>
</defs>
</svg>
