<svg width="100" height="100" viewBox="0 0 100 100" fill="none" xmlns="http://www.w3.org/2000/svg">
<g clip-path="url(#clip0_278_47)">
<path d="M77.4119 44.1941C78.8639 39.8361 78.3639 35.0621 76.0419 31.0981C72.5499 25.0181 65.5299 21.8901 58.6739 23.3621C55.6239 19.9261 51.2419 17.9721 46.6479 18.0001C39.6399 17.9841 33.4219 22.4961 31.2659 29.1641C26.7639 30.0861 22.8779 32.9041 20.6039 36.8981C17.0859 42.9621 17.8879 50.6061 22.5879 55.8061C21.1359 60.1641 21.6359 64.9381 23.9579 68.9021C27.4499 74.9821 34.4699 78.1101 41.3259 76.6381C44.3739 80.0741 48.7579 82.0281 53.3519 81.9981C60.3639 82.0161 66.5839 77.5001 68.7399 70.8261C73.2419 69.9041 77.1279 67.0861 79.4019 63.0921C82.9159 57.0281 82.1119 49.3901 77.4139 44.1901L77.4119 44.1941ZM53.3559 77.8161C50.5499 77.8201 47.8319 76.8381 45.6779 75.0401C45.7759 74.9881 45.9459 74.8941 46.0559 74.8261L58.7999 67.4661C59.4519 67.0961 59.8519 66.4021 59.8479 65.6521V47.6861L65.2339 50.7961C65.2919 50.8241 65.3299 50.8801 65.3379 50.9441V65.8221C65.3299 72.4381 59.9719 77.8021 53.3559 77.8161ZM27.5879 66.8101C26.1819 64.3821 25.6759 61.5361 26.1579 58.7741C26.2519 58.8301 26.4179 58.9321 26.5359 59.0001L39.2799 66.3601C39.9259 66.7381 40.7259 66.7381 41.3739 66.3601L56.9319 57.3761V63.5961C56.9359 63.6601 56.9059 63.7221 56.8559 63.7621L43.9739 71.2001C38.2359 74.5041 30.9079 72.5401 27.5899 66.8101H27.5879ZM24.2339 38.9921C25.6339 36.5601 27.8439 34.7001 30.4759 33.7341C30.4759 33.8441 30.4699 34.0381 30.4699 34.1741V48.8961C30.4659 49.6441 30.8659 50.3381 31.5159 50.7081L47.0739 59.6901L41.6879 62.8001C41.6339 62.8361 41.5659 62.8421 41.5059 62.8161L28.6219 55.3721C22.8959 52.0561 20.9319 44.7301 24.2319 38.9941L24.2339 38.9921ZM68.4859 49.2901L52.9279 40.3061L58.3139 37.1981C58.3679 37.1621 58.4359 37.1561 58.4959 37.1821L71.3799 44.6201C77.1159 47.9341 79.0819 55.2721 75.7679 61.0081C74.3659 63.4361 72.1579 65.2961 69.5279 66.2641V51.1021C69.5339 50.3541 69.1359 49.6621 68.4879 49.2901H68.4859ZM73.8459 41.2221C73.7519 41.1641 73.5859 41.0641 73.4679 40.9961L60.7239 33.6361C60.0779 33.2581 59.2779 33.2581 58.6299 33.6361L43.0719 42.6201V36.4001C43.0679 36.3361 43.0979 36.2741 43.1479 36.2341L56.0299 28.8021C61.7679 25.4921 69.1039 27.4621 72.4119 33.2021C73.8099 35.6261 74.3159 38.4641 73.8419 41.2221H73.8459ZM40.1439 52.3081L34.7559 49.1981C34.6979 49.1701 34.6599 49.1141 34.6519 49.0501V34.1721C34.6559 27.5481 40.0299 22.1801 46.6539 22.1841C49.4559 22.1841 52.1679 23.1681 54.3219 24.9601C54.2239 25.0121 54.0559 25.1061 53.9439 25.1741L41.1999 32.5341C40.5479 32.9041 40.1479 33.5961 40.1519 34.3461L40.1439 52.3041V52.3081ZM43.0699 46.0001L49.9999 41.9981L56.9299 45.9981V54.0001L49.9999 58.0001L43.0699 54.0001V46.0001Z" fill="black"/>
</g>
<defs>
<clipPath id="clip0_278_47">
<rect width="64" height="64" fill="white" transform="translate(18 18)"/>
</clipPath>
</defs>
</svg>
