<svg width="100" height="100" viewBox="0 0 100 100" fill="none" xmlns="http://www.w3.org/2000/svg">
<path d="M39.3358 20.0007H58.274L38.6143 78.2504C38.4123 78.8489 38.0276 79.369 37.5144 79.7375C37.0013 80.106 36.3855 80.3042 35.7537 80.3043H21.0151C20.5365 80.3044 20.0647 80.1905 19.6388 79.972C19.2129 79.7536 18.8452 79.4368 18.566 79.048C18.2868 78.6592 18.1042 78.2096 18.0333 77.7362C17.9624 77.2628 18.0052 76.7794 18.1582 76.3258L36.4745 22.0547C36.6765 21.4559 37.0612 20.9355 37.5745 20.5669C38.0879 20.1983 38.7039 20.0008 39.3358 20.0007Z" fill="url(#paint0_linear_279_51)"/>
<path d="M66.8558 59.0708H36.8243C36.5451 59.0705 36.2723 59.1543 36.0414 59.3112C35.8105 59.4682 35.6322 59.6911 35.5298 59.9508C35.4274 60.2105 35.4055 60.4951 35.4671 60.7674C35.5287 61.0397 35.6709 61.2872 35.8752 61.4775L55.1727 79.4891C55.7345 80.0132 56.4743 80.3046 57.2426 80.3045H74.2476L66.8558 59.0708Z" fill="#0078D4"/>
<path d="M39.3356 20.0005C38.6968 19.9981 38.0739 20.1999 37.5579 20.5767C37.042 20.9534 36.66 21.4852 36.4678 22.0945L18.1805 76.2762C18.0172 76.7314 17.966 77.2192 18.0311 77.6984C18.0962 78.1775 18.2757 78.634 18.5546 79.0291C18.8334 79.4242 19.2033 79.7464 19.6329 79.9683C20.0626 80.1902 20.5394 80.3054 21.0229 80.3041H36.1419C36.705 80.2035 37.2313 79.9552 37.6671 79.5847C38.1028 79.2141 38.4324 78.7345 38.6221 78.1949L42.269 67.4471L55.2954 79.5972C55.8413 80.0487 56.5261 80.2983 57.2345 80.3041H74.1762L66.7458 59.0705L45.0852 59.0756L58.3422 20.0005H39.3356Z" fill="url(#paint1_linear_279_51)"/>
<path d="M63.5245 22.0518C63.3228 21.454 62.9386 20.9345 62.4261 20.5665C61.9135 20.1985 61.2985 20.0007 60.6675 20.0007H39.5612C40.1921 20.0008 40.8071 20.1987 41.3196 20.5666C41.8321 20.9346 42.2163 21.454 42.4181 22.0518L60.7352 76.3251C60.8883 76.7787 60.9312 77.2623 60.8604 77.7358C60.7895 78.2093 60.6069 78.6591 60.3277 79.048C60.0486 79.437 59.6808 79.7538 59.2548 79.9724C58.8289 80.191 58.357 80.305 57.8782 80.3051H78.9853C79.464 80.3049 79.9358 80.1908 80.3617 79.9722C80.7875 79.7535 81.1552 79.4367 81.4343 79.0477C81.7134 78.6588 81.8959 78.2091 81.9668 77.7356C82.0376 77.2622 81.9946 76.7787 81.8415 76.3251L63.5245 22.0518Z" fill="url(#paint2_linear_279_51)"/>
<defs>
<linearGradient id="paint0_linear_279_51" x1="46.2382" y1="24.4694" x2="26.5705" y2="82.5729" gradientUnits="userSpaceOnUse">
<stop stop-color="#114A8B"/>
<stop offset="1" stop-color="#0669BC"/>
</linearGradient>
<linearGradient id="paint1_linear_279_51" x1="52.3817" y1="51.547" x2="47.8323" y2="53.0853" gradientUnits="userSpaceOnUse">
<stop stop-opacity="0.3"/>
<stop offset="0.071" stop-opacity="0.2"/>
<stop offset="0.321" stop-opacity="0.1"/>
<stop offset="0.623" stop-opacity="0.05"/>
<stop offset="1" stop-opacity="0"/>
</linearGradient>
<linearGradient id="paint2_linear_279_51" x1="49.8798" y1="22.7748" x2="71.4691" y2="80.2927" gradientUnits="userSpaceOnUse">
<stop stop-color="#3CCBF4"/>
<stop offset="1" stop-color="#2892DF"/>
</linearGradient>
</defs>
</svg>
